<svg xmlns="http://www.w3.org/2000/svg" xml:space="preserve" viewBox="0 0 80 80"><path fill="#454545" d="M-4.5-4.5h89v89h-89z"/><path fill="#fff" d="M56.2 59.3c-.8 0-1.5-.7-1.5-1.5v-3.9c0-1.7-.7-3.3-1.9-4.5-1.2-1.2-2.8-1.9-4.5-1.9H32.6c-1.7 0-3.3.7-4.5 1.9-1.2 1.2-1.9 2.8-1.9 4.5v3.9c0 .8-.7 1.5-1.5 1.5s-1.5-.7-1.5-1.5v-3.9c0-2.5 1-4.9 2.7-6.6 1.8-1.8 4.1-2.8 6.6-2.8h15.7c2.5 0 4.9 1 6.6 2.8 1.8 1.8 2.7 4.1 2.7 6.6v3.9c.2.8-.5 1.5-1.3 1.5zM40.4 39.5c-5.2 0-9.4-4.2-9.4-9.4s4.2-9.4 9.4-9.4 9.4 4.2 9.4 9.4-4.2 9.4-9.4 9.4zm0-15.8c-3.5 0-6.4 2.9-6.4 6.4 0 3.5 2.9 6.4 6.4 6.4 3.5 0 6.4-2.9 6.4-6.4 0-3.5-2.8-6.4-6.4-6.4z"/></svg>