<svg version="1.1" viewBox="0 0 80 80" xml:space="preserve" xmlns="http://www.w3.org/2000/svg">
<g>
	<path d="M40,0L40,0c22.1,0,40,17.9,40,40l0,0c0,22.1-17.9,40-40,40l0,0C17.9,80,0,62.1,0,40l0,0C0,17.9,17.9,0,40,0z"/>
</g>
<g>
	<path fill='white' d="M56.2,59.3c-0.8,0-1.5-0.7-1.5-1.5v-3.9c0-1.7-0.7-3.3-1.9-4.5c-1.2-1.2-2.8-1.9-4.5-1.9H32.6
		c-1.7,0-3.3,0.7-4.5,1.9c-1.2,1.2-1.9,2.8-1.9,4.5v3.9c0,0.8-0.7,1.5-1.5,1.5s-1.5-0.7-1.5-1.5v-3.9c0-2.5,1-4.9,2.7-6.6
		c1.8-1.8,4.1-2.8,6.6-2.8h15.7c2.5,0,4.9,1,6.6,2.8c1.8,1.8,2.7,4.1,2.7,6.6v3.9C57.7,58.6,57,59.3,56.2,59.3z"/>
</g>
<g>
	<path fill='white' d="M40.4,39.5c-5.2,0-9.4-4.2-9.4-9.4s4.2-9.4,9.4-9.4c5.2,0,9.4,4.2,9.4,9.4S45.6,39.5,40.4,39.5z M40.4,23.7
		c-3.5,0-6.4,2.9-6.4,6.4c0,3.5,2.9,6.4,6.4,6.4c3.5,0,6.4-2.9,6.4-6.4C46.8,26.6,44,23.7,40.4,23.7z"/>
</g>
</svg>