<svg xmlns="http://www.w3.org/2000/svg" width="16" height="16" aria-hidden="true"><path d="M5.454 12.578c0 .062-.072.112-.162.112-.102.009-.173-.04-.173-.112 0-.062.07-.112.16-.112.094-.009.175.04.175.112Zm-.965-.14c-.022.062.04.134.133.152.08.031.174 0 .193-.062.018-.062-.04-.133-.134-.16-.08-.023-.17.008-.192.07Zm1.37-.052c-.09.021-.151.08-.142.152.01.062.09.102.183.08.09-.021.152-.08.143-.142-.01-.06-.093-.1-.183-.09ZM7.902.5C3.599.5.308 3.766.308 8.068c0 3.44 2.165 6.383 5.257 7.42.397.07.537-.174.537-.376 0-.192-.01-1.253-.01-1.904 0 0-2.17.465-2.627-.925 0 0-.353-.902-.862-1.135 0 0-.71-.487.05-.478 0 0 .772.063 1.197.8.68 1.198 1.818.854 2.261.649.071-.496.273-.84.496-1.045-1.734-.193-3.483-.444-3.483-3.428 0-.853.236-1.28.732-1.827-.08-.201-.344-1.032.08-2.106.649-.201 2.141.838 2.141.838a7.287 7.287 0 0 1 1.948-.264c.66 0 1.327.09 1.948.264 0 0 1.492-1.042 2.14-.838.425 1.077.161 1.905.08 2.106.497.55.8.977.8 1.827 0 2.993-1.826 3.232-3.56 3.428.285.245.527.71.527 1.439 0 1.045-.009 2.338-.009 2.593 0 .201.143.447.537.375 3.101-1.03 5.204-3.973 5.204-7.413C15.692 3.766 12.202.5 7.901.5ZM3.323 11.198c-.04.03-.031.102.021.161.05.05.121.071.162.031.04-.031.03-.102-.022-.161-.05-.05-.121-.072-.161-.031Zm-.335-.252c-.022.04.009.09.071.122.05.03.112.021.133-.022.022-.04-.009-.09-.071-.121-.062-.019-.112-.01-.133.021Zm1.005 1.105c-.05.04-.031.133.04.192.071.071.161.08.202.031.04-.04.021-.133-.04-.192-.069-.072-.162-.08-.202-.031Zm-.354-.456c-.05.03-.05.111 0 .183.05.071.133.102.174.071.05-.04.05-.12 0-.192-.044-.072-.124-.103-.174-.062Z"/></svg>