<svg version="1.1" viewBox="0 0 887.2 905.1" xml:space="preserve" xmlns="http://www.w3.org/2000/svg">
  <path d="m887.2 537.6-5.5 20.4-29.9-8 23.1 33.5-6.5 24.1-24.1-36.4-49.8 17.6 6.5-24.4 32.4-11.3-6.2-9.7-19.2-5.1 5.5-20.4 73.7 19.7z"/>
  <path d="m854.4 637.7-9.1 19.1-68.8-33 9.1-19.1 68.8 33z"/>
  <path d="m827 690.6-12.2 17.3-47.2-33.3-21.3 30.2-15.1-10.8 33.5-47.4 62.3 44z"/>
  <path d="m770.2 763.1-14.9 15-54.1-53.8 14.9-15 54.1 53.8z"/>
  <path d="m725.9 806.1-18.6 12.4-31.5-14.5 1.2 34.7-18.6 12.4-42.2-63.6 17.5-11.6 24.2 36.5-0.3-35.7 0.4-0.2 32.6 14-24.1-36.5 17.2-11.5 42.2 63.6z"/>
  <path d="m593.6 878.5-19.4 6.4-54.8-62.9 21.5-7.1 9.5 11.3 28.1-9.2 0.9-14.7 21-6.9-6.8 83.1zm-32.1-38.5 14.8 17.8 1.4-23.2-16.2 5.4z"/>
  <path d="m506.5 900.6-19.7 1.2-33.8-38.3 2.5 40.3-20.9 1.3-4.7-76.2 18.4-1.1 35.2 39.8-2.6-41.8 20.9-1.3 4.7 76.1z"/>
  <path d="m410.1 838.8-15.5 10.5c-2.9-5-6-8.1-10.7-8.9-5.2-0.8-9.1 2.2-10.2 9.2l-7.7 47.7-20.8-3.4 7.8-47.8c1.5-9.5 5-15.8 10.9-20s13.3-5.7 21.9-4.3c13 2.1 20.1 8.9 24.3 17z"/>
  <path d="m338.5 826-17.2 7.4c-1.9-5.5-4.3-9.1-8.8-10.8-4.9-1.8-9.3 0.4-11.8 7.1l-16.6 45.3-19.8-7.2 16.6-45.5c3.3-9 7.9-14.5 14.4-17.6s14.1-3.1 22.3-0.1c12.6 4.6 18.3 12.6 20.9 21.4z"/>
  <path d="m270.5 799.9-18.3 4c-0.9-5.7-2.5-9.8-6.7-12.2-4.5-2.7-9.2-1.3-12.9 4.7l-24.8 41.4-18.1-10.8 24.9-41.5c4.9-8.2 10.5-12.8 17.5-14.6s14.5-0.4 21.9 4.1c11.5 6.9 15.6 15.8 16.5 24.9z"/>
  <path d="m139.8 787.8-14.8-14 29.2-78.2 16.5 15.6-5.5 13.7 21.5 20.3 13.3-6.2 16.1 15.2-76.3 33.6zm18.6-46.6-8.6 21.5 21.1-9.8-12.5-11.7z"/>
  <path d="m79.4 722.1-19.4-30.4c-6.3-9.8-8-18.3-6.5-25.3 1.4-6.2 5-11.2 11.3-15.3l0.2-0.1c9.9-6.3 19.8-5.3 28.3 0.6l12.6-29.6 13.1 20.5-11.2 25.4 5 7.9 19.5-12.4 11.4 17.8-64.3 40.9zm11.9-49.4c-3.8-6-9-7.7-13.7-4.7l-0.2 0.1c-5.1 3.3-5.3 8.7-1.6 14.6l7.5 11.8 15.5-9.9-7.5-11.9z"/>
  <path d="m62.7 619.3-0.2 0.1c-20.8 6.8-43.2-4.5-50.5-26.9s4-44.4 24.8-51.2l0.2-0.1c20.8-6.8 43.2 4.5 50.5 26.9s-4 44.5-24.8 51.2zm-18.7-57.5-0.2 0.1c-10.6 3.4-17.2 13.8-13.5 24.9s14.9 15.5 25.4 12.1l0.2-0.1c10.5-3.4 17.1-13.9 13.5-25-3.7-10.9-15-15.4-25.4-12z"/>
  <path d="m23.2 467.2-0.3-21.5 21.3-0.3 0.3 21.5-21.3 0.3z"/>
  <path d="m0 358.2 5.9-20.3 29.7 8.6-22.4-34 7-24 23.4 36.9 50.2-16.5-7 24.3-32.6 10.6 6 9.8 19.1 5.5-5.9 20.3-73.4-21.2z"/>
  <path d="m34.8 258.7 9.5-18.9 68.1 34.4-9.5 18.9-68.1-34.4z"/>
  <path d="m63.3 206.4 12.5-17 46.5 34.3 21.9-29.7 14.9 11-34.5 46.8-61.3-45.4z"/>
  <path d="m121.5 135.1 15.2-14.7 53 54.9-15.1 14.7-53.1-54.9z"/>
  <path d="m166.6 93 18.9-12 31.2 15.2-0.5-34.7 18.9-12 40.9 64.4-17.8 11.3-23.5-37-0.4 35.7-0.4 0.2-32.3-14.7 23.4 36.9-17.5 11.1-40.9-64.4z"/>
  <path d="m300.4 23.3 19.5-6 53.6 64-21.7 6.6-9.2-11.5-28.2 8.7-1.2 14.7-21.2 6.5 8.4-83zm31.3 39.2-14.5-18.1-1.9 23.2 16.4-5.1z"/>
  <path d="M388,2.9l19.7-0.8l33,39L439,0.9L459.9,0l3.1,76.2L444.7,77l-34.4-40.5l1.7,41.8l-20.9,0.9L388,2.9z"/>
  <path d="m483.1 66.7 15.7-10.2c2.8 5.1 5.8 8.3 10.5 9.1 5.1 0.9 9.1-2 10.4-9l8.7-47.5 20.7 3.8-8.7 47.6c-1.7 9.4-5.3 15.6-11.3 19.8-5.8 4-13.4 5.4-22 3.8-13-2.3-20-9.2-24-17.4z"/>
  <path d="m554.4 81 17.4-7.1c1.8 5.5 4.1 9.2 8.6 10.9 4.9 1.9 9.3-0.2 11.9-6.8l17.5-45 19.6 7.6-17.5 45.1c-3.5 8.9-8.2 14.4-14.8 17.3s-14.2 2.8-22.3-0.4c-12.4-4.7-17.9-12.8-20.4-21.6z"/>
  <path d="m621.9 108.4 18.4-3.7c0.8 5.8 2.3 9.8 6.4 12.4 4.4 2.8 9.2 1.5 13-4.5l25.6-40.9 17.8 11.2-25.7 41c-5.1 8.1-10.7 12.6-17.8 14.2-6.9 1.6-14.5 0.1-21.8-4.5-11.3-7.1-15.2-16.1-15.9-25.2z"/>
  <path d="m752.3 123.1 14.5 14.3-30.7 77.6-16.2-15.9 5.7-13.6-21.1-20.7-13.5 6-15.8-15.5 77.1-32.2zm-19.5 46.3 9.1-21.3-21.3 9.3 12.2 12z"/>
  <path d="m811.4 190 18.8 30.8c6.1 10 7.7 18.4 6 25.5-1.5 6.1-5.2 11.1-11.7 15l-0.2 0.1c-10.1 6.1-19.9 4.9-28.3-1.1l-13.2 29.4-12.7-20.8 11.7-25.2-4.9-8-19.7 12-11-18.1 65.2-39.6zm-13 49.1c3.7 6 8.9 7.9 13.6 5l0.2-0.1c5.2-3.2 5.5-8.6 1.9-14.5l-7.3-11.9-15.7 9.6 7.3 11.9z"/>
  <path d="m826 293.1 0.2-0.1c21-6.4 43.1 5.4 49.9 27.9s-4.9 44.3-25.9 50.7l-0.2 0.1c-21 6.4-43.1-5.4-49.9-27.9s4.9-44.3 25.9-50.7zm17.6 57.9 0.2-0.1c10.6-3.2 17.4-13.5 14.1-24.6s-14.6-15.8-25.1-12.7l-0.2 0.1c-10.5 3.2-17.4 13.6-14 24.8 3.2 11 14.4 15.7 25 12.5z"/>
  <path d="m862.5 446.4-0.3 21.5-21.3-0.3 0.3-21.5 21.3 0.3z"/>
</svg>
